<svg width="24" height="24" viewBox="0 0 24 24" fill="none" xmlns="http://www.w3.org/2000/svg">
<path d="M11.9617 23.9234C18.568 23.9234 23.9234 18.568 23.9234 11.9617C23.9234 5.35545 18.568 0 11.9617 0C5.35545 0 0 5.35545 0 11.9617C0 18.568 5.35545 23.9234 11.9617 23.9234Z" fill="url(#paint0_linear_1_45)"/>
<path d="M19.0549 9.98802H17.6354C16.8539 7.81897 14.7526 6.33173 11.9815 6.33173H7.42409V9.98802H5.84116V11.2998H7.42409V12.6754H5.84116V13.9872H7.42409V17.5997H11.9815C14.7207 17.5997 16.8061 16.1244 17.6075 13.9872H19.0549V12.6754H17.9265C17.9544 12.4442 17.9703 12.2049 17.9703 11.9657V11.9338C17.9703 11.7185 17.9584 11.5072 17.9384 11.2998H19.0589V9.98802H19.0549ZM8.70001 7.49999H11.9815C14.015 7.49999 15.5262 8.50078 16.2239 9.98404H8.70001V7.49999ZM11.9815 16.4194H8.70001V13.9832H16.216C15.5142 15.4426 14.007 16.4194 11.9815 16.4194ZM16.6506 11.9936C16.6506 12.2249 16.6346 12.4521 16.6027 12.6714H8.70001V11.2958H16.6067C16.6346 11.5111 16.6506 11.7344 16.6506 11.9617V11.9936Z" fill="white"/>
<defs>
<linearGradient id="paint0_linear_1_45" x1="11.9617" y1="-3.38915" x2="11.9617" y2="26.4354" gradientUnits="userSpaceOnUse">
<stop stop-color="#F9A606"/>
<stop offset="1" stop-color="#FBCC5F"/>
</linearGradient>
</defs>
</svg>
