<svg width="51" height="50" viewBox="0 0 51 50" fill="none" xmlns="http://www.w3.org/2000/svg">
<path d="M25.8177 50C39.6249 50 50.8177 38.8071 50.8177 25C50.8177 11.1929 39.6249 0 25.8177 0C12.0106 0 0.817749 11.1929 0.817749 25C0.817749 38.8071 12.0106 50 25.8177 50Z" fill="#627EEA"/>
<path opacity="0.688616" d="M15.4614 24.7537L25.7748 30.8467V7.64209L15.4614 24.7537Z" fill="white"/>
<path opacity="0.686328" d="M25.7784 7.64252V30.8471L36.0871 24.7541L25.7784 7.64252Z" fill="white"/>
<path opacity="0.8" d="M15.4608 26.7076L25.7738 41.2368V32.8006L15.4608 26.7076Z" fill="white"/>
<path opacity="0.9" d="M25.7784 32.8006V41.2368L36.0954 26.7076L25.7784 32.8006Z" fill="white"/>
<path opacity="0.69827" d="M25.7739 20.0645L15.4608 24.7549L25.7739 30.8479L36.083 24.7549L25.7739 20.0645Z" fill="white"/>
</svg>
