<svg width="25" height="24" viewBox="0 0 25 24" fill="none" xmlns="http://www.w3.org/2000/svg">
<path d="M12.1114 23.9234C14.4772 23.9234 16.7899 23.2219 18.757 21.9075C20.7241 20.5931 22.2572 18.725 23.1626 16.5393C24.0679 14.3536 24.3048 11.9485 23.8433 9.62812C23.3817 7.30777 22.2425 5.1764 20.5696 3.50351C18.8967 1.83064 16.7653 0.691393 14.445 0.229846C12.1246 -0.231699 9.71955 0.0051822 7.53383 0.910537C5.3481 1.81589 3.47995 3.34905 2.16557 5.31615C0.8512 7.28324 0.149658 9.59592 0.149658 11.9617C0.149658 15.1342 1.40991 18.1767 3.65317 20.4199C5.89643 22.6632 8.93893 23.9234 12.1114 23.9234Z" fill="#2775C9"/>
<path d="M15.0883 13.5738C15.0883 11.8657 14.0488 11.2899 12.0381 11.0141C10.5521 10.7994 10.2666 10.4505 10.2666 9.75748C10.2666 9.06448 10.7693 8.63258 11.7307 8.63258C12.6067 8.63258 13.1118 8.93761 13.3192 9.6428C13.3412 9.71998 13.3875 9.78801 13.4512 9.83678C13.515 9.88557 13.5927 9.91254 13.673 9.91363H14.4416C14.4918 9.91468 14.5417 9.90464 14.5875 9.88425C14.6334 9.86384 14.6742 9.83357 14.7071 9.79559C14.7399 9.75761 14.764 9.71285 14.7776 9.66453C14.7912 9.61619 14.794 9.56542 14.7857 9.51591C14.5417 8.40078 13.7901 7.72975 12.6116 7.51989V6.34376C12.6116 6.24669 12.573 6.15359 12.5044 6.08496C12.4357 6.0163 12.3426 5.97775 12.2455 5.97775H11.5135C11.4164 5.97775 11.3233 6.0163 11.2547 6.08496C11.186 6.15359 11.1475 6.24669 11.1475 6.34376V7.4784C9.68343 7.68337 8.75861 8.64965 8.75861 9.88924C8.75861 11.4924 9.73466 12.1146 11.7746 12.3904C13.163 12.6173 13.5583 12.9174 13.5583 13.7056C13.5583 14.4937 12.8873 15.0232 11.9405 15.0232C10.6643 15.0232 10.2324 14.4644 10.0885 13.7397C10.0717 13.6566 10.027 13.5817 9.96174 13.5275C9.89647 13.4733 9.81461 13.4432 9.72978 13.442H8.89528C8.84548 13.4417 8.79622 13.4523 8.75094 13.473C8.70566 13.4937 8.66544 13.5241 8.63314 13.562C8.60082 13.5999 8.57719 13.6444 8.56389 13.6924C8.55058 13.7403 8.54791 13.7907 8.55609 13.8398C8.76838 15.0598 9.55165 15.9529 11.1475 16.1676V17.3242C11.1475 17.4213 11.186 17.5144 11.2547 17.5831C11.3233 17.6517 11.4164 17.6903 11.5135 17.6903H12.2455C12.3426 17.6903 12.4357 17.6517 12.5044 17.5831C12.573 17.5144 12.6116 17.4213 12.6116 17.3242V16.1676C14.1244 15.9285 15.0883 14.8842 15.0883 13.5738Z" fill="white"/>
<path d="M9.36801 18.7103C7.9581 18.1954 6.74054 17.2596 5.88027 16.0297C5.02 14.7997 4.5586 13.335 4.5586 11.834C4.5586 10.3331 5.02 8.86841 5.88027 7.63845C6.74054 6.40846 7.9581 5.47268 9.36801 4.95782C9.4584 4.91815 9.53582 4.85388 9.59149 4.77234C9.64714 4.6908 9.67877 4.59528 9.68278 4.49665V3.81341C9.68863 3.75291 9.67849 3.69193 9.65332 3.6366C9.62815 3.58128 9.58888 3.53353 9.53944 3.49817C9.48999 3.46281 9.4321 3.4411 9.3716 3.43517C9.31112 3.42927 9.25011 3.43938 9.19476 3.46448C7.41925 4.03037 5.8697 5.14625 4.77012 6.65078C3.67054 8.15532 3.07791 9.97054 3.07791 11.834C3.07791 13.6976 3.67054 15.5128 4.77012 17.0173C5.8697 18.5219 7.41925 19.6377 9.19476 20.2036C9.25011 20.2287 9.31112 20.2389 9.3716 20.2329C9.4321 20.227 9.48999 20.2053 9.53944 20.1699C9.58888 20.1346 9.62815 20.0868 9.65332 20.0315C9.67849 19.9762 9.68863 19.9152 9.68278 19.8547V19.1715C9.67877 19.0728 9.64714 18.9773 9.59149 18.8958C9.53582 18.8142 9.4584 18.75 9.36801 18.7103Z" fill="white"/>
<path d="M14.5625 3.46448C14.5071 3.43938 14.4461 3.42927 14.3856 3.43517C14.3251 3.4411 14.2673 3.46281 14.2178 3.49817C14.1684 3.53353 14.1291 3.58128 14.1039 3.6366C14.0788 3.69193 14.0686 3.75291 14.0745 3.81341V4.49665C14.0785 4.59528 14.1101 4.6908 14.1657 4.77234C14.2214 4.85388 14.2988 4.91815 14.3892 4.95782C15.7991 5.47268 17.0167 6.40846 17.877 7.63845C18.7373 8.86841 19.1986 10.3331 19.1986 11.834C19.1986 13.335 18.7373 14.7997 17.877 16.0297C17.0167 17.2596 15.7991 18.1954 14.3892 18.7103C14.2959 18.7457 14.2157 18.8089 14.1594 18.8914C14.1031 18.9739 14.0734 19.0716 14.0745 19.1715V19.8547C14.0686 19.9152 14.0788 19.9762 14.1039 20.0315C14.1291 20.0868 14.1684 20.1346 14.2178 20.1699C14.2673 20.2053 14.3251 20.227 14.3856 20.2329C14.4461 20.2389 14.5071 20.2287 14.5625 20.2036C16.338 19.6377 17.8876 18.5219 18.9871 17.0173C20.0867 15.5128 20.6793 13.6976 20.6793 11.834C20.6793 9.97054 20.0867 8.15532 18.9871 6.65078C17.8876 5.14625 16.338 4.03037 14.5625 3.46448Z" fill="white"/>
</svg>
