<svg width="27" height="27" viewBox="0 0 27 27" fill="none" xmlns="http://www.w3.org/2000/svg">
<g filter="url(#filter0_d_1_53)">
<path d="M13.4385 24.9999C20.0448 24.9999 25.4003 19.6445 25.4003 13.0382C25.4003 6.43192 20.0448 1.07648 13.4385 1.07648C6.83225 1.07648 1.47681 6.43192 1.47681 13.0382C1.47681 19.6445 6.83225 24.9999 13.4385 24.9999Z" fill="black"/>
</g>
<path d="M13.4385 24.9999C20.0448 24.9999 25.4003 19.6445 25.4003 13.0382C25.4003 6.43192 20.0448 1.07648 13.4385 1.07648C6.83225 1.07648 1.47681 6.43192 1.47681 13.0382C1.47681 19.6445 6.83225 24.9999 13.4385 24.9999Z" fill="#26A17B"/>
<path style="mix-blend-mode:soft-light" d="M13.4385 24.9999C20.0448 24.9999 25.4003 19.6445 25.4003 13.0382C25.4003 6.43192 20.0448 1.07648 13.4385 1.07648C6.83225 1.07648 1.47681 6.43192 1.47681 13.0382C1.47681 19.6445 6.83225 24.9999 13.4385 24.9999Z" fill="url(#paint0_linear_1_53)"/>
<g filter="url(#filter1_d_1_53)">
<path d="M14.971 14.141V14.1395C14.8833 14.1458 14.4311 14.1729 13.4223 14.1729C12.6169 14.1729 12.0499 14.149 11.8506 14.1395V14.1418C8.7501 14.0055 6.43592 13.4656 6.43592 12.8197C6.43592 12.1745 8.7501 11.6347 11.8506 11.4959V13.6044C12.0531 13.6187 12.6337 13.653 13.4359 13.653C14.3984 13.653 14.8809 13.6131 14.971 13.6052V11.4975C18.0651 11.6355 20.3737 12.1753 20.3737 12.8197C20.3737 13.4656 18.0651 14.0039 14.971 14.141ZM14.971 11.2782V9.39144H19.2883V6.51425H7.5332V9.39144H11.8506V11.2774C8.34181 11.4385 5.70306 12.1339 5.70306 12.9664C5.70306 13.7989 8.34181 14.4935 11.8506 14.6554V20.7017H14.971V14.6538C18.4742 14.4927 21.1065 13.7981 21.1065 12.9664C21.1065 12.1347 18.4742 11.4401 14.971 11.2782Z" fill="black"/>
</g>
<path d="M14.971 14.141V14.1395C14.8833 14.1458 14.4311 14.1729 13.4223 14.1729C12.6169 14.1729 12.0499 14.149 11.8506 14.1395V14.1418C8.7501 14.0055 6.43592 13.4656 6.43592 12.8197C6.43592 12.1745 8.7501 11.6347 11.8506 11.4959V13.6044C12.0531 13.6187 12.6337 13.653 13.4359 13.653C14.3984 13.653 14.8809 13.6131 14.971 13.6052V11.4975C18.0651 11.6355 20.3737 12.1753 20.3737 12.8197C20.3737 13.4656 18.0651 14.0039 14.971 14.141ZM14.971 11.2782V9.39144H19.2883V6.51425H7.5332V9.39144H11.8506V11.2774C8.34181 11.4385 5.70306 12.1339 5.70306 12.9664C5.70306 13.7989 8.34181 14.4935 11.8506 14.6554V20.7017H14.971V14.6538C18.4742 14.4927 21.1065 13.7981 21.1065 12.9664C21.1065 12.1347 18.4742 11.4401 14.971 11.2782Z" fill="white"/>
<defs>
<filter id="filter0_d_1_53" x="0.476807" y="0.576477" width="25.9234" height="25.9234" filterUnits="userSpaceOnUse" color-interpolation-filters="sRGB">
<feFlood flood-opacity="0" result="BackgroundImageFix"/>
<feColorMatrix in="SourceAlpha" type="matrix" values="0 0 0 0 0 0 0 0 0 0 0 0 0 0 0 0 0 0 127 0" result="hardAlpha"/>
<feOffset dy="0.5"/>
<feGaussianBlur stdDeviation="0.5"/>
<feColorMatrix type="matrix" values="0 0 0 0 0 0 0 0 0 0 0 0 0 0 0 0 0 0 0.199474 0"/>
<feBlend mode="normal" in2="BackgroundImageFix" result="effect1_dropShadow_1_53"/>
<feBlend mode="normal" in="SourceGraphic" in2="effect1_dropShadow_1_53" result="shape"/>
</filter>
<filter id="filter1_d_1_53" x="4.70306" y="6.01425" width="17.4034" height="16.1874" filterUnits="userSpaceOnUse" color-interpolation-filters="sRGB">
<feFlood flood-opacity="0" result="BackgroundImageFix"/>
<feColorMatrix in="SourceAlpha" type="matrix" values="0 0 0 0 0 0 0 0 0 0 0 0 0 0 0 0 0 0 127 0" result="hardAlpha"/>
<feOffset dy="0.5"/>
<feGaussianBlur stdDeviation="0.5"/>
<feColorMatrix type="matrix" values="0 0 0 0 0 0 0 0 0 0 0 0 0 0 0 0 0 0 0.204257 0"/>
<feBlend mode="normal" in2="BackgroundImageFix" result="effect1_dropShadow_1_53"/>
<feBlend mode="normal" in="SourceGraphic" in2="effect1_dropShadow_1_53" result="shape"/>
</filter>
<linearGradient id="paint0_linear_1_53" x1="13.4385" y1="1.07648" x2="13.4385" y2="24.9999" gradientUnits="userSpaceOnUse">
<stop stop-color="white" stop-opacity="0.5"/>
<stop offset="1" stop-opacity="0.5"/>
</linearGradient>
</defs>
</svg>
