<svg width="50" height="27" viewBox="0 0 50 27" fill="none" xmlns="http://www.w3.org/2000/svg">
<path d="M0.564575 0.262695H7.69312V0.947953H1.31295V6.02613H6.881V6.71149H1.31295V11.8905H7.86299V12.5759H0.564575V0.262695Z" fill="white"/>
<path d="M20.1484 0.947998H15.9289V12.5758H15.1804V0.947998H10.9552V0.262634H20.1484V0.947998Z" fill="white"/>
<path d="M24.3502 0.262695H25.0985V6.02087H32.9756V0.262695H33.7238V12.5759H32.9756V6.70613H25.0985V12.5759H24.3502V0.262695Z" fill="white"/>
<path d="M46.2644 8.90522H40.1392L38.7113 12.5758H37.9468L42.7453 0.262634H43.6584L48.5097 12.5758H47.7083L46.2644 8.90522ZM45.9937 8.22006L43.186 1.09147L40.4098 8.22006H45.9937Z" fill="white"/>
<path d="M6.63215 25.6984V26.3814H0.569092V15.2746H1.377V25.6984H6.63215Z" fill="white"/>
<path d="M18.5934 25.7142L18.5776 26.3814H11.9264V15.2746H18.5776V15.9418H12.7344V20.4315H17.5971V21.0831H12.7344V25.7142H18.5934Z" fill="white"/>
<path d="M33.0091 15.2746V26.3814H32.6327C32.5647 26.3814 32.5083 26.3696 32.464 26.346C32.4195 26.3224 32.3763 26.2821 32.3346 26.2244L25.1266 16.5855C25.1422 16.7425 25.1501 16.8916 25.1501 17.0329V26.3815H24.4442V15.2746H24.8442C24.9174 15.2746 24.9736 15.2838 25.0129 15.3021C25.0522 15.3205 25.0953 15.361 25.1422 15.4236L32.3346 25.0392C32.319 24.8822 32.3111 24.7331 32.3111 24.5917V15.2746H33.0091Z" fill="white"/>
<path d="M49.0566 20.824C49.0566 21.6822 48.9285 22.4541 48.6725 23.1396C48.416 23.8252 48.0554 24.4086 47.59 24.89C47.1245 25.3715 46.5665 25.7404 45.9155 25.9967C45.2645 26.2533 44.5467 26.3814 43.7623 26.3814H39.7074V15.2746H43.7623C44.5467 15.2746 45.2644 15.4029 45.9155 15.6591C46.5664 15.9156 47.1245 16.2845 47.59 16.766C48.0554 17.2474 48.4161 17.8308 48.6725 18.5164C48.9285 19.2019 49.0566 19.9711 49.0566 20.824ZM48.2252 20.824C48.2252 20.0497 48.1178 19.3589 47.9036 18.7517C47.6891 18.1448 47.3859 17.632 46.9939 17.2133C46.6016 16.7947 46.1311 16.4755 45.5819 16.2556C45.0328 16.0359 44.4264 15.926 43.7622 15.926H40.5151V25.7298H43.7622C44.4263 25.7298 45.0328 25.6199 45.5819 25.4001C46.1311 25.1803 46.6015 24.8613 46.9939 24.4424C47.386 24.0238 47.6891 23.5111 47.9036 22.904C48.1179 22.2972 48.2252 21.6038 48.2252 20.824Z" fill="white"/>
</svg>
